<?xml version="1.0" encoding="UTF-8" standalone="no"?>
<svg
   viewBox="0 0 50 30"
   width="1000"
   height="600"
   version="1.1"
   id="svg5"
   xmlns="http://www.w3.org/2000/svg"
   xmlns:svg="http://www.w3.org/2000/svg">
  <defs
     id="defs5">
    <clipPath
       clipPathUnits="userSpaceOnUse"
       id="clipPath11">
      <path
         d="m 25,15 h 25 v 15 z m 0,0 V 30 H 0 Z m 0,0 H 0 V 0 Z m 0,0 V 0 h 25 z"
         id="path12"
         style="stroke-width:1" />
    </clipPath>
    <clipPath
       clipPathUnits="userSpaceOnUse"
       id="clipPath12">
      <path
         d="m 25,15 h 25 v 15 z m 0,0 V 30 H 0 Z m 0,0 H 0 V 0 Z m 0,0 V 0 h 25 z"
         id="path13"
         style="stroke-width:1" />
    </clipPath>
    <clipPath
       clipPathUnits="userSpaceOnUse"
       id="clipPath11-6">
      <path
         d="m 25,15 h 25 v 15 z m 0,0 V 30 H 0 Z m 0,0 H 0 V 0 Z m 0,0 V 0 h 25 z"
         id="path12-2"
         style="stroke-width:1" />
    </clipPath>
  </defs>
  <path
     id="path2-0"
     style="fill:#0088aa"
     d="M 10.836621 20 L 0 20 L 0 26.501953 L 10.836621 20 z " />
  <path
     id="path51"
     style="fill:#0088aa"
     d="M 10.836621 10 L 0 3.4980469 L 0 10 L 10.836621 10 z " />
  <path
     id="path37"
     style="fill:#0088aa"
     d="M 30 21.498047 L 30 30 L 44.169922 30 L 30 21.498047 z " />
  <path
     id="path47"
     style="fill:#0088aa"
     d="M 20 21.498047 L 5.8300781 30 L 20 30 L 20 21.498047 z " />
  <path
     id="path36"
     style="fill:#0088aa"
     d="M 39.163379 10 L 50 10 L 50 3.4980469 L 39.163379 10 z " />
  <path
     id="path45"
     style="fill:#0088aa"
     d="M 50 20 L 39.163379 20 L 50 26.501953 L 50 20 z " />
  <path
     id="path35"
     style="fill:#0088aa"
     d="M 30 0 L 30 8.5019531 L 44.169922 0 L 30 0 z " />
  <path
     id="path38"
     style="fill:#0088aa"
     d="M 5.8300781 0 L 20 8.5019531 L 20 0 L 5.8300781 0 z " />
  <path
     id="path10"
     style="fill:#c83737"
     d="M 22,0 V 12 H 0 v 6 h 22 v 12 h 6 V 18 H 50 V 12 H 28 V 0 Z" />
  <path
     style="fill:#c83737;stroke-width:0.05;stroke-linecap:square;stroke-dasharray:0.2, 0.2;fill-opacity:1"
     d="M 16.666667,10 H 12.779688 L 0,2.3324044 V 0 Z"
     id="path53" />
  <path
     style="fill:#c83737;stroke-width:0.05;stroke-linecap:square;stroke-dasharray:0.2, 0.2;fill-opacity:1"
     d="M 30,10 V 9.667871 L 46.112704,0 H 50 L 33.333334,10 Z"
     id="path54" />
  <path
     style="fill:#c83737;stroke-width:0.05;stroke-linecap:square;stroke-dasharray:0.2, 0.2;fill-opacity:1"
     d="m 33.333334,20 h 3.886978 L 50,27.667595 V 30 Z"
     id="path55" />
  <path
     style="fill:#c83737;stroke-width:0.05;stroke-linecap:square;stroke-dasharray:0.2, 0.2;fill-opacity:1"
     d="M 0,30 16.666667,20 H 20 v 0.332129 L 3.8872966,30 Z"
     id="path56" />
</svg>
