<?xml version="1.0" encoding="UTF-8" standalone="no"?>
<svg
   width="800"
   height="800"
   viewBox="0 0 20 20"
   fill="currentColor"
   version="1.1"
   id="svg12"
   xmlns="http://www.w3.org/2000/svg"
   xmlns:svg="http://www.w3.org/2000/svg">
  <path
     d="M 2.069,11 H 4 c 0.552,0 1,-0.448 1,-1 v 0 C 5,9.448 4.552,9 4,9 H 2.069 C 2.252,8 2.828,6.208 3.688,5.102 L 5.05,6.464 c 0.39,0.391 1.023,0.391 1.414,0 v 0 c 0.391,-0.39 0.391,-1.023 0,-1.414 L 5.102,3.688 C 6.208,2.828 8,2.252 9,2.069 V 4 C 9,4.553 9.447,5 9.999,5 H 10 c 0.552,0 1,-0.447 1,-1 V 2.069 c 1,0.183 2.791,0.759 3.897,1.619 L 13.535,5.05 c -0.39,0.391 -0.39,1.024 0,1.414 v 0 c 0.391,0.391 1.024,0.391 1.414,0 l 1.362,-1.363 c 0.86,1.106 1.436,2.898 1.619,3.898 h -1.931 c -0.552,0 -0.999,0.448 -0.999,1 v 0 c 0,0.552 0.447,1 0.999,1 h 1.931 c -0.183,1 -0.759,2.792 -1.619,3.898 l -1.362,-1.362 c -0.39,-0.391 -1.023,-0.391 -1.414,0 v 0 c -0.39,0.39 -0.39,1.023 0,1.414 l 1.362,1.362 C 13.791,17.171 12,17.747 11,17.93 V 16 c 0,-0.552 -0.448,-1 -1,-1 H 9.999 C 9.447,15 9,15.448 9,16 v 1.931 C 8,17.748 6.208,17.172 5.102,16.312 L 6.464,14.95 c 0.391,-0.391 0.391,-1.024 0,-1.414 v 0 c -0.39,-0.391 -1.024,-0.391 -1.414,0 L 3.688,14.898 C 2.828,13.792 2.252,12 2.069,11 M 10,0 C 4.477,0 0,4.477 0,10 0,15.523 4.477,20 10,20 15.522,20 20,15.523 20,10 20,4.477 15.522,0 10,0" />
</svg>
