<?xml version="1.0" encoding="UTF-8" standalone="no"?>
<svg
   width="800.00006"
   height="800.00006"
   viewBox="0 0 20.000002 20.000002"
   fill="currentColor"
   version="1.1"
   xmlns="http://www.w3.org/2000/svg"
   xmlns:svg="http://www.w3.org/2000/svg">
  <path d="M 10 0 A 10 10 0 0 0 0 10 A 10 10 0 0 0 10 20 A 10 10 0 0 0 20 10 A 10 10 0 0 0 10 0 z M 10 4.1007813 C 13.257555 4.1007813 15.89922 6.7418553 15.899219 10 C 15.899219 13.258144 13.257555 15.899219 10 15.899219 C 6.7418559 15.899219 4.1007813 13.258144 4.1007813 10 C 4.1007813 6.7418553 6.7418559 4.1007813 10 4.1007813 z M 9.4100588 5.321338 C 8.8201358 5.4292947 7.7630021 5.7690817 7.110547 6.2764162 L 7.9140139 7.079883 C 8.1446735 7.3105419 8.1446735 7.6839437 7.9140139 7.9140139 C 7.6833535 8.1446728 7.3099525 8.1446728 7.079883 7.9140139 L 6.2764162 7.110547 C 5.7690826 7.763001 5.4292933 8.8201363 5.321338 9.4100588 L 6.4604494 9.4100588 C 6.7860868 9.4100588 7.0503908 9.674363 7.0503908 10 C 7.0503908 10.325638 6.7860868 10.589942 6.4604494 10.589942 L 5.321338 10.589942 C 5.4292939 11.179866 5.7690826 12.237001 6.2764162 12.889453 L 7.079883 12.085987 C 7.3099525 11.855326 7.6839437 11.855326 7.9140139 12.085987 C 8.1446735 12.316056 8.1446735 12.68946 7.9140139 12.920117 L 7.110547 13.723584 C 7.7630021 14.23092 8.8201358 14.570706 9.4100588 14.678662 L 9.4100588 13.539551 C 9.4100588 13.213913 9.6737768 12.94961 9.9994143 12.94961 L 10 12.94961 C 10.325638 12.94961 10.589942 13.213913 10.589942 13.539551 L 10.589942 14.678077 C 11.179866 14.57012 12.236412 14.230333 12.888867 13.722998 L 12.085401 12.919532 C 11.855331 12.688873 11.855331 12.315472 12.085401 12.085401 C 12.316061 11.854741 12.689463 11.854741 12.919532 12.085401 L 13.722998 12.888867 C 14.230332 12.236413 14.57012 11.179277 14.678077 10.589356 L 13.538965 10.589356 C 13.213328 10.589356 12.94961 10.325052 12.94961 9.9994143 C 12.94961 9.6737768 13.213328 9.4094729 13.538965 9.4094729 L 14.678077 9.4094729 C 14.57012 8.8195491 14.230332 7.7624163 13.722998 7.1099611 L 12.919532 7.9140139 C 12.689463 8.1446728 12.31606 8.1446728 12.085401 7.9140139 C 11.855331 7.6839437 11.855331 7.3105419 12.085401 7.079883 L 12.888867 6.2764162 C 12.236412 5.7690817 11.179866 5.4292947 10.589942 5.321338 L 10.589942 6.4604494 C 10.589942 6.786677 10.325638 7.0503908 10 7.0503908 L 9.9994143 7.0503908 C 9.6737768 7.0503908 9.4100588 6.786677 9.4100588 6.4604494 L 9.4100588 5.321338 z " />
</svg>