<?xml version="1.0" encoding="UTF-8" standalone="no"?>
<svg
   width="800.00006"
   height="800.00006"
   viewBox="0 0 20.000002 20.000002"
   fill="currentColor"
   version="1.1"
   xmlns="http://www.w3.org/2000/svg"
   xmlns:svg="http://www.w3.org/2000/svg">
  <path d="m 10.000001,4.100782 c -3.2581404,0 -5.899219,2.6410776 -5.899219,5.899219 0,3.258141 2.6410786,5.899219 5.899219,5.899219 3.257552,0 5.899219,-2.641078 5.899219,-5.899219 1e-6,-3.2581414 -2.641667,-5.899219 -5.899219,-5.899219 z M 9.4100595,5.3213387 v 1.1391114 c 0,0.3262276 0.2637178,0.5899414 0.5893555,0.5899414 h 5.86e-4 c 0.325638,0 0.589942,-0.2637138 0.589942,-0.5899414 V 5.3213387 c 0.589923,0.1079569 1.646471,0.4477447 2.298925,0.9550782 l -0.803466,0.8034668 c -0.23007,0.2306587 -0.23007,0.6040611 0,0.8341309 0.230658,0.2306587 0.604062,0.2306587 0.834131,0 l 0.803466,-0.8040528 c 0.507334,0.6524544 0.847122,1.7095884 0.955079,2.2995118 h -1.139112 c -0.325637,0 -0.589355,0.2643047 -0.589355,0.5899414 0,0.325638 0.263718,0.589942 0.589355,0.589942 h 1.139112 c -0.107957,0.58992 -0.447745,1.647058 -0.955079,2.299511 l -0.803466,-0.803466 c -0.230069,-0.23066 -0.603472,-0.23066 -0.834131,0 -0.23007,0.23007 -0.23007,0.603472 0,0.834131 l 0.803466,0.803466 c -0.652454,0.507335 -1.709002,0.847122 -2.298925,0.955079 v -1.138526 c 0,-0.325638 -0.264304,-0.589941 -0.589942,-0.589941 h -5.86e-4 c -0.3256377,0 -0.5893555,0.264303 -0.5893555,0.589941 v 1.139111 C 8.8201371,14.570708 7.7630021,14.230921 7.1105477,13.723585 l 0.8034669,-0.803467 c 0.2306587,-0.230656 0.2306587,-0.604062 0,-0.83413 -0.2300708,-0.230661 -0.6040621,-0.230661 -0.8341309,0 L 6.2764169,12.889454 C 5.7690834,12.237003 5.4292946,11.179866 5.3213387,10.589943 h 1.1391114 c 0.3256366,0 0.5899414,-0.264304 0.5899414,-0.589942 0,-0.3256363 -0.2643048,-0.5899415 -0.5899414,-0.5899415 H 5.3213387 C 5.4292936,8.8201371 5.7690834,7.7630011 6.2764169,7.1105477 l 0.8034668,0.8034669 c 0.2300688,0.2306587 0.6034701,0.2306587 0.8341309,0 0.2306587,-0.2300698 0.2306587,-0.6034722 0,-0.8341309 L 7.1105477,6.2764169 C 7.7630021,5.7690834 8.8201371,5.4292956 9.4100595,5.3213387 Z" />
</svg>
