<?xml version="1.0" encoding="UTF-8" standalone="no"?>
<svg
   width="600"
   height="600"
   viewBox="0 0 18 18"
   fill="currentColor"
   version="1.1"
   xmlns="http://www.w3.org/2000/svg"
   xmlns:svg="http://www.w3.org/2000/svg">
  <path d="M 7.3685742 4.1057812 A 0.54380122 0.54380122 0 0 0 6.8247656 4.6495898 L 6.8247656 6.8247656 L 4.6495898 6.8247656 A 0.54380122 0.54380122 0 0 0 4.1057812 7.3685742 A 0.54380122 0.54380122 0 0 0 4.6495898 7.9123828 L 7.3685742 7.9123828 A 0.54385561 0.54385561 0 0 0 7.9123828 7.3685742 L 7.9123828 4.6495898 A 0.54380122 0.54380122 0 0 0 7.3685742 4.1057812 z M 10.631426 4.1057812 A 0.54380122 0.54380122 0 0 0 10.087617 4.6495898 L 10.087617 7.3685742 A 0.54385561 0.54385561 0 0 0 10.631426 7.9123828 L 13.35041 7.9123828 A 0.54380122 0.54380122 0 0 0 13.894219 7.3685742 A 0.54380122 0.54380122 0 0 0 13.35041 6.8247656 L 11.175176 6.8247656 L 11.175176 4.6495898 A 0.54380122 0.54380122 0 0 0 10.631426 4.1057812 z M 4.6495898 10.087617 A 0.54380122 0.54380122 0 0 0 4.1057812 10.631426 A 0.54380122 0.54380122 0 0 0 4.6495898 11.175234 L 6.8247656 11.175234 L 6.8247656 13.35041 A 0.54380122 0.54380122 0 0 0 7.3685742 13.894219 A 0.54380122 0.54380122 0 0 0 7.9123828 13.35041 L 7.9123828 10.631426 A 0.54385561 0.54385561 0 0 0 7.3685742 10.087617 L 4.6495898 10.087617 z M 10.631426 10.087617 A 0.54385561 0.54385561 0 0 0 10.087617 10.631426 L 10.087617 13.35041 A 0.54380122 0.54380122 0 0 0 10.631426 13.894219 A 0.54380122 0.54380122 0 0 0 11.175176 13.35041 L 11.175176 11.175234 L 13.35041 11.175234 A 0.54380122 0.54380122 0 0 0 13.894219 10.631426 A 0.54380122 0.54380122 0 0 0 13.35041 10.087617 L 10.631426 10.087617 z " />
</svg>
