<?xml version="1.0" encoding="UTF-8" standalone="no"?>
<svg
   width="600.25006"
   height="600.25006"
   viewBox="0 0 18.007502 18.007501"
   fill="currentColor"
   version="1.1"
   xmlns="http://www.w3.org/2000/svg"
   xmlns:svg="http://www.w3.org/2000/svg">
  <path d="M 9.0037504,5e-7 A 9.0037622,9.0037622 0 0 0 5e-7,9.0037504 9.0037622,9.0037622 0 0 0 9.0037504,18.0075 9.0037622,9.0037622 0 0 0 18.0075,9.0037504 9.0037622,9.0037622 0 0 0 9.0037504,5e-7 Z M 5.3544731,4.1704106 c 0.067812,2.846e-4 0.1382959,0.00199 0.213457,0.00199 h 1.8253711 a 0.5368183,0.5368183 0 0 1 0.536836,0.5368359 0.5368183,0.5368183 0 0 1 -0.536836,0.5367774 H 5.5679301 c -0.1690461,0 -0.2668719,0.0087 -0.3104882,0.011426 -0.00272,0.04359 -0.011426,0.1413757 -0.011426,0.3104882 V 7.3933012 A 0.5368183,0.5368183 0 0 1 4.7092387,7.9301372 0.5368183,0.5368183 0 0 1 4.1724028,7.3933012 V 5.5679301 c 0,-0.3006446 -0.02712,-0.5257287 0.1174219,-0.809414 C 4.392728,4.5565731 4.5565556,4.3927262 4.7585161,4.2898247 4.9712845,4.1814063 5.1510356,4.1695568 5.3544731,4.1704106 Z m 7.2985549,0 c 0.203446,-8.501e-4 0.383261,0.011008 0.596016,0.1194141 0.202034,0.1029275 0.365781,0.2668909 0.468633,0.4686914 0.144559,0.2836912 0.117422,0.5087694 0.117422,0.809414 v 1.8253711 a 0.5368183,0.5368183 0 0 1 -0.536778,0.536836 0.5368183,0.5368183 0 0 1 -0.536836,-0.536836 V 5.5679301 c 0,-0.1691122 -0.0087,-0.2668972 -0.01143,-0.3104882 -0.04361,-0.00273 -0.141367,-0.011426 -0.310428,-0.011426 H 10.614195 A 0.5368183,0.5368183 0 0 1 10.077423,4.7092387 0.5368183,0.5368183 0 0 1 10.6142,4.1724028 h 1.82543 c 0.07517,0 0.145583,-0.00171 0.213398,-0.00199 z M 4.7092387,10.077423 A 0.5368183,0.5368183 0 0 1 5.2460161,10.6142 v 1.82543 c 0,0.169061 0.0087,0.266819 0.011426,0.310429 0.043616,0.0027 0.1414418,0.01143 0.3104882,0.01143 h 1.8253711 a 0.5368183,0.5368183 0 0 1 0.536836,0.536836 0.5368183,0.5368183 0 0 1 -0.536836,0.536836 H 5.5679301 c -0.3006445,0 -0.5257228,0.02708 -0.809414,-0.11748 C 4.5567156,13.614825 4.3927522,13.451078 4.2898247,13.249044 4.1452827,12.965371 4.1724028,12.740302 4.1724028,12.43963 V 10.6142 a 0.5368183,0.5368183 0 0 1 0.5368359,-0.536777 z m 8.5890823,0 a 0.5368183,0.5368183 0 0 1 0.536778,0.536777 v 1.82543 c 0,0.300672 0.02714,0.525735 -0.117422,0.809414 -0.102876,0.201892 -0.266741,0.365756 -0.468633,0.468633 -0.283679,0.144559 -0.508742,0.11748 -0.809414,0.11748 H 10.6142 A 0.5368183,0.5368183 0 0 1 10.077422,13.298321 0.5368183,0.5368183 0 0 1 10.6142,12.761485 h 1.82543 c 0.169061,0 0.266818,-0.0087 0.310429,-0.01143 0.0027,-0.04361 0.01143,-0.141367 0.01143,-0.310429 v -1.82543 a 0.5368183,0.5368183 0 0 1 0.536836,-0.536777 z" />
</svg>
