<?xml version="1.0" encoding="UTF-8" standalone="no"?>
<svg
   width="600.25006"
   height="600.25006"
   viewBox="0 0 18.007502 18.007501"
   fill="currentColor"
   version="1.1"
   xmlns="http://www.w3.org/2000/svg"
   xmlns:svg="http://www.w3.org/2000/svg">
  <path d="M 5.316621 4.1704101 C 5.1284666 4.1714054 4.9579857 4.188182 4.7585155 4.2898241 C 4.5565552 4.3927255 4.3927273 4.5565727 4.2898241 4.7585155 C 4.1452824 5.0422006 4.1724023 5.2672853 4.1724023 5.5679296 L 4.1724023 7.3933006 A 0.5368183 0.5368183 0 0 0 4.7092382 7.9301366 A 0.5368183 0.5368183 0 0 0 5.2460155 7.3933006 L 5.2460155 5.5679296 C 5.2460155 5.3988173 5.2547213 5.3010313 5.2574413 5.2574413 C 5.3010576 5.2547153 5.3988837 5.2460155 5.5679296 5.2460155 L 7.3933006 5.2460155 A 0.5368183 0.5368183 0 0 0 7.9301366 4.7092382 A 0.5368183 0.5368183 0 0 0 7.3933006 4.1724023 L 5.5679296 4.1724023 C 5.4927686 4.1724023 5.4222845 4.1706947 5.3544726 4.1704101 C 5.3417577 4.1703567 5.3291646 4.1703437 5.316621 4.1704101 z M 12.653027 4.1704101 C 12.585212 4.1706901 12.514799 4.1724023 12.439629 4.1724023 L 10.614199 4.1724023 A 0.5368183 0.5368183 0 0 0 10.077422 4.7092382 A 0.5368183 0.5368183 0 0 0 10.614199 5.2460155 L 12.439629 5.2460155 C 12.60869 5.2460155 12.706448 5.2547113 12.750058 5.2574413 C 12.752788 5.3010323 12.761484 5.3988176 12.761484 5.5679296 L 12.761484 7.3933006 A 0.5368183 0.5368183 0 0 0 13.29832 7.9301366 A 0.5368183 0.5368183 0 0 0 13.835097 7.3933006 L 13.835097 5.5679296 C 13.835097 5.2672853 13.862234 5.0422065 13.717676 4.7585155 C 13.614824 4.5567152 13.451077 4.3927515 13.249043 4.2898241 C 13.036288 4.1814181 12.856473 4.16956 12.653027 4.1704101 z M 4.7092382 10.077422 A 0.5368183 0.5368183 0 0 0 4.1724023 10.614199 L 4.1724023 12.439629 C 4.1724023 12.7403 4.1452823 12.96537 4.2898241 13.249043 C 4.3927515 13.451077 4.5567152 13.61482 4.7585155 13.717676 C 5.0422065 13.862235 5.2672854 13.835156 5.5679296 13.835156 L 7.3933006 13.835156 A 0.5368183 0.5368183 0 0 0 7.9301366 13.29832 A 0.5368183 0.5368183 0 0 0 7.3933006 12.761484 L 5.5679296 12.761484 C 5.3988834 12.761484 5.3010573 12.752758 5.2574413 12.750058 C 5.2547153 12.706448 5.2460155 12.60869 5.2460155 12.439629 L 5.2460155 10.614199 A 0.5368183 0.5368183 0 0 0 4.7092382 10.077422 z M 13.29832 10.077422 A 0.5368183 0.5368183 0 0 0 12.761484 10.614199 L 12.761484 12.439629 C 12.761484 12.608691 12.752758 12.706448 12.750058 12.750058 C 12.706447 12.752788 12.60869 12.761484 12.439629 12.761484 L 10.614199 12.761484 A 0.5368183 0.5368183 0 0 0 10.077422 13.29832 A 0.5368183 0.5368183 0 0 0 10.614199 13.835156 L 12.439629 13.835156 C 12.7403 13.835156 12.965364 13.862234 13.249043 13.717676 C 13.450935 13.614799 13.6148 13.450935 13.717676 13.249043 C 13.862237 12.965364 13.835097 12.7403 13.835097 12.439629 L 13.835097 10.614199 A 0.5368183 0.5368183 0 0 0 13.29832 10.077422 z " />
</svg>
