<?xml version="1.0" encoding="UTF-8" standalone="no"?>
<svg
   width="560.60742"
   height="560.60742"
   viewBox="0 0 33.636444 33.636444"
   fill="currentColor"
   version="1.1"
   id="svg12"
   xmlns="http://www.w3.org/2000/svg"
   xmlns:svg="http://www.w3.org/2000/svg">
   <path d="M 16.818281,0 A 16.818228,16.818228 0 0 0 0,16.818164 16.818228,16.818228 0 0 0 16.818281,33.636445 16.818228,16.818228 0 0 0 33.636444,16.818164 16.818228,16.818228 0 0 0 16.818281,0 Z m -2.507344,6.499688 c 0.0033,-0.0033 0.388612,0.179145 0.680508,0.322266 1.84657,0.9054 3.490521,2.0382595 4.523555,3.1171865 0.287272,0.3000355 0.481868,0.5312215 0.720234,0.8560555 0.838005,1.141996 1.483035,2.371589 1.88332,3.589921 0.196312,0.597506 0.314392,1.126824 0.35168,1.576758 0.009,0.108794 0.009,0.428575 0,0.49582 -0.01593,0.118878 -0.04436,0.196807 -0.09047,0.248086 -0.02653,0.02951 -0.06966,0.06086 -0.08355,0.0607 -0.0047,-5.4e-5 -0.02138,-0.0072 -0.03703,-0.01582 -0.0802,-0.04422 -0.132924,-0.09258 -0.307265,-0.28207 C 21.404987,15.874135 20.727013,15.229473 20.021606,14.6332 19.250402,13.981309 18.420822,13.356256 17.370239,12.635505 16.995638,12.378509 16.898905,12.301268 16.706372,12.1057 16.347409,11.741082 16.047759,11.315883 15.735239,10.727458 15.240011,9.7950235 14.780834,8.5094455 14.454849,7.143044 14.388939,6.866778 14.307587,6.503041 14.310942,6.499685 Z M 4.176328,9.2588675 c 0.09919,6.7e-5 0.887378,0.0935 1.43543,0.171211 2.748723,0.389764 5.245281,1.0593325 7.521094,2.0170315 2.472317,1.040392 4.697174,2.439448 6.617929,4.161679 0.517744,0.464232 1.092172,1.032714 1.629844,1.612969 0.305629,0.329835 0.483027,0.477486 0.67125,0.558633 0.100318,0.04325 0.206965,0.05645 0.286523,0.03551 0.07508,-0.01976 0.171229,-0.08193 0.260156,-0.168282 0.157744,-0.153165 0.289848,-0.335499 0.634102,-0.874922 0.306023,-0.479517 0.444756,-0.676876 0.668437,-0.951093 0.24657,-0.302277 0.550382,-0.604051 0.852071,-0.846446 0.529048,-0.425065 1.124583,-0.745326 1.74246,-0.936914 0.864629,-0.268099 1.946579,-0.321828 3.153164,-0.156679 0.529237,0.07244 1.05825,0.180388 1.351641,0.275859 0.08742,0.02845 0.174765,0.0725 0.207891,0.104766 0.03314,0.03228 0.04928,0.07546 0.03938,0.105469 -0.01485,0.04498 -0.08554,0.109505 -0.198164,0.18082 -0.09945,0.06297 -0.264644,0.17955 -0.353555,0.249492 -0.354077,0.278535 -0.65674,0.626514 -0.889805,1.023047 -0.233388,0.397082 -0.49301,1.118255 -0.698437,1.939922 -0.129034,0.516115 -0.204735,0.884394 -0.403946,1.966875 -0.110889,0.602553 -0.148723,0.782023 -0.236953,1.121718 -0.317497,1.222418 -0.83455,2.41887 -1.516289,3.508594 -0.396949,0.634505 -0.868026,1.256979 -1.365117,1.804101 -0.207013,0.227849 -0.548806,0.573278 -0.75914,0.767227 -0.506776,0.467291 -0.999209,0.85813 -1.536211,1.219336 -2.171148,1.460386 -4.71278,2.206157 -7.33957,2.153437 -1.482836,-0.02976 -2.978605,-0.326687 -4.334531,-0.86039 -0.07462,-0.02937 -0.07475,-0.02827 0.0023,-0.03645 0.06644,-0.007 0.284758,-0.0361 0.37125,-0.04934 1.494222,-0.22887 2.908076,-0.779942 4.180078,-1.629257 0.812944,-0.542801 1.588858,-1.236244 2.25961,-2.019492 0.498469,-0.582072 0.810973,-1.016323 0.942539,-1.309571 0.05867,-0.130761 0.07671,-0.2079 0.07266,-0.311367 -0.0022,-0.05548 -0.0047,-0.0711 -0.01488,-0.09129 -0.04443,-0.08811 -0.124923,-0.142748 -0.255,-0.173086 -0.06357,-0.01483 -0.118702,-0.02097 -0.253008,-0.02824 -0.181069,-0.0098 -0.377153,0.0015 -1.042031,0.06023 -0.532807,0.04707 -0.764562,0.06004 -1.140586,0.06363 -0.603593,0.0058 -0.958691,-0.02936 -1.490625,-0.147539 -0.618088,-0.137317 -1.252707,-0.409426 -1.807968,-0.775195 -0.394743,-0.26003 -0.797396,-0.580798 -1.207032,-0.961406 -0.126761,-0.117778 -0.529552,-0.521899 -0.664218,-0.666446 -0.358389,-0.384681 -0.716865,-0.797015 -1.102383,-1.267734 -0.170766,-0.208507 -0.346241,-0.430937 -0.342539,-0.434297 0.0084,-0.0076 0.384353,-0.09658 0.624492,-0.147773 0.532854,-0.113596 1.029767,-0.194369 1.669336,-0.271407 0.248385,-0.02992 0.589596,-0.06271 0.901758,-0.0866 0.257138,-0.01968 0.263718,-0.02023 0.261211,-0.02273 -0.0013,-0.0013 -0.07522,-0.02043 -0.164297,-0.04254 C 12.74364,18.926845 12.069275,18.702676 11.437352,18.435813 10.710142,18.128711 9.97805,17.738137 9.374969,17.335657 8.451353,16.71926 7.740642,16.047215 7.231961,15.309017 7.134291,15.167284 7.056599,15.043183 7.06204,15.037845 c 0.0065,-0.0063 0.158858,-0.04995 0.275507,-0.07887 0.516248,-0.128 1.089318,-0.179433 1.831172,-0.164414 0.277679,0.0056 0.380819,0.0096 0.837539,0.03258 0.623804,0.03134 0.619653,0.03111 0.611836,0.02484 -0.0012,-9.96e-4 -0.142464,-0.08676 -0.313828,-0.190546 C 9.043513,13.89781 8.469143,13.536968 7.754852,13.059833 6.662613,12.330236 6.033954,11.846282 5.437469,11.275771 4.775613,10.642735 4.365338,10.012572 4.188719,9.3578795 c -0.01347,-0.04993 -0.02369,-0.09397 -0.02273,-0.09785 2.12e-4,-8.59e-4 0.0037,-0.0012 0.01031,-0.0012 z m 23.31,5.6074215 c -0.01783,-6.9e-4 -0.03572,-6.29e-4 -0.05367,2.35e-4 -0.257849,0.0124 -0.486917,0.18132 -0.582071,0.429257 -0.03218,0.08385 -0.04253,0.148295 -0.03961,0.246211 0.0032,0.108168 0.02176,0.184935 0.06609,0.273633 0.03665,0.07334 0.06857,0.116213 0.132187,0.177539 0.09039,0.08713 0.202259,0.148077 0.320977,0.175078 0.04232,0.0096 0.122449,0.01774 0.151172,0.01523 0.01043,-9.12e-4 0.03497,-0.0031 0.05461,-0.0047 0.0742,-0.0062 0.187244,-0.0429 0.256992,-0.08344 0.148035,-0.08603 0.263498,-0.238868 0.309024,-0.408985 0.03425,-0.127988 0.02996,-0.242425 -0.01406,-0.373828 -0.08514,-0.254128 -0.334212,-0.4359 -0.60164,-0.44625 z" />
</svg>
