<?xml version="1.0" encoding="UTF-8" standalone="no"?>
<svg
   width="560.60742"
   height="560.60742"
   viewBox="0 0 33.636444 33.636444"
   fill="currentColor"
   version="1.1"
   xmlns="http://www.w3.org/2000/svg"
   xmlns:svg="http://www.w3.org/2000/svg">
  <path d="M 14.310937 6.4996872 C 14.307582 6.5030432 14.388933 6.8667809 14.454843 7.1430466 C 14.780828 8.5094467 15.240006 9.795027 15.735234 10.727461 C 16.047753 11.315885 16.347404 11.741085 16.706367 12.105703 C 16.898899 12.30127 16.995633 12.378512 17.370234 12.635507 C 18.420816 13.356258 19.250398 13.981312 20.021601 14.633203 C 20.727007 15.229475 21.404982 15.874138 21.951913 16.468593 C 22.126254 16.658083 22.178979 16.706443 22.259179 16.750663 C 22.274829 16.759283 22.29151 16.76643 22.29621 16.766484 C 22.3101 16.766644 22.353235 16.735291 22.379765 16.705781 C 22.425875 16.654502 22.454304 16.576573 22.470233 16.457695 C 22.479233 16.39045 22.479233 16.070668 22.470233 15.961874 C 22.432946 15.511941 22.314866 14.982622 22.118554 14.385117 C 21.718269 13.166786 21.073238 11.93719 20.235234 10.795195 C 19.996868 10.470361 19.802271 10.239175 19.514999 9.9391402 C 18.481966 8.8602143 16.838013 7.727352 14.991445 6.8219529 C 14.699549 6.678832 14.314237 6.4963872 14.310937 6.4996872 z M 4.176328 9.2588668 C 4.169718 9.2588668 4.1662275 9.2591797 4.1660155 9.2600387 C 4.1650555 9.2639187 4.1752799 9.3079603 4.1887498 9.3578903 C 4.3653687 10.012582 4.7756444 10.642745 5.4374998 11.275781 C 6.0339842 11.846291 6.6626446 12.330247 7.7548825 13.059843 C 8.4691728 13.536978 9.0435447 13.897821 10.304296 14.661445 C 10.47566 14.765231 10.616925 14.850996 10.618125 14.851992 C 10.625942 14.858262 10.630092 14.858488 10.006289 14.827148 C 9.5495691 14.804168 9.4464284 14.80017 9.1687496 14.79457 C 8.4268964 14.779551 7.8538253 14.830984 7.3375778 14.958984 C 7.220929 14.987904 7.06857 15.031551 7.06207 15.037851 C 7.056629 15.043189 7.134322 15.16729 7.2319919 15.309023 C 7.7406724 16.04722 8.4513846 16.719267 9.3749996 17.335663 C 9.97808 17.738143 10.710173 18.128718 11.437382 18.43582 C 12.069305 18.702682 12.743671 18.926852 13.416679 19.093945 C 13.505756 19.116055 13.579676 19.135184 13.580976 19.136484 C 13.583483 19.138984 13.576903 19.139538 13.319765 19.159218 C 13.007603 19.183108 12.666392 19.2159 12.418007 19.24582 C 11.778439 19.322857 11.281525 19.40363 10.748671 19.517226 C 10.508533 19.568419 10.132579 19.657399 10.124179 19.664999 C 10.120477 19.668359 10.295953 19.890789 10.466718 20.099296 C 10.852236 20.570015 11.210712 20.98235 11.569101 21.36703 C 11.703767 21.511577 12.106559 21.915698 12.23332 22.033476 C 12.642955 22.414083 13.045608 22.734852 13.440351 22.994882 C 13.995611 23.360651 14.630232 23.63276 15.24832 23.770077 C 15.780253 23.888256 16.135352 23.923416 16.738945 23.917616 C 17.114968 23.914026 17.346724 23.901053 17.879531 23.853983 C 18.544408 23.795254 18.740493 23.783949 18.921562 23.793749 C 19.055868 23.801019 19.111 23.807161 19.17457 23.821991 C 19.304646 23.852329 19.38514 23.906967 19.42957 23.995077 C 19.43975 24.015267 19.442252 24.030886 19.444452 24.086366 C 19.448502 24.189833 19.430466 24.266973 19.371796 24.397733 C 19.24023 24.690981 18.927726 25.125232 18.429257 25.707304 C 17.758506 26.490551 16.982591 27.183995 16.169648 27.726796 C 14.897647 28.57611 13.48379 29.127184 11.98957 29.356054 C 11.903078 29.369294 11.68476 29.398389 11.61832 29.405389 C 11.54127 29.413569 11.541356 29.412465 11.615976 29.441835 C 12.971901 29.975537 14.467673 30.272465 15.950507 30.302225 C 18.577295 30.354945 21.118931 29.609173 23.290077 28.148788 C 23.827079 27.787582 24.319513 27.396743 24.826288 26.929452 C 25.036622 26.735503 25.378416 26.390074 25.585429 26.162226 C 26.082519 25.615104 26.553597 24.992628 26.950546 24.358124 C 27.632284 23.268401 28.149338 22.071947 28.466835 20.84953 C 28.555065 20.509836 28.592899 20.330364 28.703788 19.727812 C 28.902999 18.645332 28.978699 18.277051 29.107733 17.760937 C 29.31316 16.939271 29.572783 16.218097 29.806171 15.821015 C 30.039235 15.424482 30.341899 15.076503 30.695975 14.797968 C 30.784886 14.728026 30.95008 14.611446 31.04953 14.548476 C 31.162154 14.477161 31.232844 14.412636 31.247694 14.367656 C 31.257594 14.337647 31.241459 14.294467 31.208319 14.262187 C 31.175193 14.229921 31.087848 14.185871 31.000428 14.157421 C 30.707038 14.06195 30.178024 13.954002 29.648788 13.881562 C 28.442204 13.716413 27.360252 13.770143 26.495624 14.038242 C 25.877748 14.229829 25.282211 14.550091 24.753163 14.975156 C 24.451474 15.21755 24.147663 15.519324 23.901093 15.821601 C 23.677412 16.095818 23.538678 16.293178 23.232655 16.772695 C 22.888402 17.312117 22.756298 17.494452 22.598554 17.647616 C 22.509627 17.733968 22.413477 17.796138 22.338398 17.815898 C 22.25884 17.836838 22.152192 17.82364 22.051874 17.78039 C 21.863651 17.699243 21.686253 17.551592 21.380624 17.221757 C 20.842953 16.641503 20.268524 16.07302 19.75078 15.608788 C 17.830027 13.886559 15.605166 12.4875 13.132851 11.447109 C 10.85704 10.489411 8.3604778 9.8198414 5.6117576 9.4300778 C 5.0637061 9.3523668 4.2755179 9.2589338 4.176328 9.2588668 z M 27.486327 14.866288 C 27.753755 14.876638 28.002828 15.058411 28.087968 15.312538 C 28.131988 15.443941 28.13628 15.558379 28.10203 15.686367 C 28.056504 15.856483 27.941042 16.009321 27.793007 16.095351 C 27.723259 16.135891 27.610214 16.172588 27.536015 16.178788 C 27.516375 16.180388 27.491835 16.182564 27.481405 16.183476 C 27.452682 16.185986 27.372553 16.177842 27.330233 16.168242 C 27.211515 16.141241 27.099647 16.080293 27.009257 15.993163 C 26.94564 15.931837 26.913719 15.888964 26.877069 15.815624 C 26.832739 15.726926 26.814176 15.650159 26.810976 15.541992 C 26.808056 15.444076 26.818405 15.379631 26.850585 15.295781 C 26.945739 15.047844 27.174806 14.878923 27.432655 14.866523 C 27.450605 14.865659 27.468497 14.865598 27.486327 14.866288 z " />
</svg>
