<?xml version="1.0" encoding="UTF-8" standalone="no"?>
<svg
   width="56.577728mm"
   height="13.818347mm"
   viewBox="0 0 56.577728 13.818347"
   fill="currentColor"
   version="1.1"
   id="svg5"
   xmlns="http://www.w3.org/2000/svg"
   xmlns:svg="http://www.w3.org/2000/svg">
  <path
     d="m 1.6312431,4.56457 q 0.338666,0.09878 0.860777,-0.09878 0.522111,-0.197555 0.917222,-0.606777 0.409222,-0.423333 0.409222,-0.860777 -0.01411,-0.536222 -0.395111,-0.804333 -0.366889,-0.282222 -0.860777,-0.254 -0.493889,0.01411 -0.917222,0.239889 z m -1.580443,5.291662 q -0.084667,-2.483553 -0.028222,-7.267216 0,-0.578555 0.578555,-1.41111 0.592666,-0.832555 1.142999,-0.987777 0.747888,-0.225778 1.439332,-0.183445 0.705555,0.04233 1.241777,0.268111 0.550333,0.225778 0.874888,0.663222 0.338667,0.437444 0.352778,0.987777 0.01411,0.578555 -0.197556,1.128888 -0.211666,0.536222 -0.564444,0.959555 -0.338666,0.423333 -0.761999,0.804332 -0.423333,0.381 -0.860777,0.649111 -0.423333,0.254 -0.790222,0.451555 -0.352777,0.197556 -0.564444,0.296333 l -0.225778,0.08467 q 0.07056,1.580443 0.09878,2.751665 0.01411,0.931332 -0.634999,1.28411 -0.508,0.282222 -0.874889,0 -0.211666,-0.169334 -0.225777,-0.479778 z" />
  <path
     d="m 8.8138061,0.966239 q 0.112888,1.707443 -0.437445,5.559774 1.495777,-1.975554 2.7798869,-2.666998 1.001888,-0.550333 1.185333,0.08467 0.04233,0.112889 0.04233,0.268111 0.05644,3.414886 0.197555,4.656663 0.07056,0.677333 -0.592666,1.15711 -0.550333,0.381 -0.959555,0.197556 -0.197555,-0.08467 -0.239888,-0.324555 -0.197556,-0.889 -0.08467,-3.767664 -0.634999,0.479777 -1.3123319,1.41111 -0.663222,0.917221 -0.804333,1.326443 0.05644,0.479778 -0.691444,1.058333 -0.691444,0.507999 -1.058332,0.423333 -0.169334,-0.04233 -0.169334,-0.239889 0,-0.268111 0.254,-4.219219 0.254,-3.951108 0.197556,-4.317997 -0.05645,-0.380999 0.493888,-0.846666 0.578555,-0.479777 0.945444,-0.282222 0.225777,0.127 0.254,0.522111 z" />
  <path
     d="m 15.728245,3.873126 q 0.183444,0.395111 0.479778,1.15711 0.296333,0.761999 0.493888,1.340555 l 0.197555,0.578555 q 0.268111,-1.298222 0.310445,-1.947332 0.04233,-0.719666 0.790221,-1.241777 0.592667,-0.409222 0.917222,-0.225778 0.127,0.07056 0.141111,0.239889 0.155222,1.382888 -0.225778,3.090331 -0.366888,1.693332 -1.269999,3.33022 -0.90311,1.636887 -2.144887,2.554109 -0.239889,0.169333 -0.564444,0.211666 -0.324555,0.04233 -0.606777,-0.05644 -0.268111,-0.09878 -0.451556,-0.381 -0.183444,-0.268111 -0.169333,-0.64911 0.01411,-0.381 0.183445,-0.635 0.169333,-0.254 0.437444,-0.338666 0.282222,-0.09878 0.465666,-0.127 0.183444,-0.02822 0.395111,-0.02822 0.254,0 0.451555,-0.282222 0.211666,-0.282222 0.296333,-0.592667 0.08467,-0.310444 0.127,-0.663221 Q 15.573023,8.642684 14.853357,7.31624 14.133691,5.989797 14.063135,5.383019 13.992575,4.74802 14.542913,4.056576 q 0.493888,-0.634999 0.90311,-0.465666 0.169333,0.07056 0.282222,0.282222 z" />
  <path
     d="m 22.106472,1.431905 q -0.169334,1.862666 -0.183445,4.374441 0,2.511776 0.127,2.878665 0.239889,0.77611 -0.380999,1.326443 -0.465667,0.423333 -0.889,0.296333 -0.254,-0.08467 -0.324555,-0.366888 -0.155222,-0.705555 -0.183444,-3.725331 -0.02822,-3.033886 0.127,-3.697108 0.112888,-0.578555 0.846666,-1.044221 0.606777,-0.381 0.804332,-0.197556 0.07056,0.04233 0.05645,0.155222 z" />
  <path
     d="m 25.309691,5.481791 q -0.268111,0.08467 -0.437445,0.522111 -0.169333,0.437444 -0.126999,1.058332 0.04233,0.620889 0.352777,1.157111 0.225778,0.39511 0.578555,0.451555 0.352778,0.04233 0.663222,-0.155222 Q 26.650245,8.304011 26.876023,7.965345 27.1018,7.626678 27.115911,7.302123 27.144131,6.850568 26.890134,6.370791 26.650245,5.876902 26.212801,5.59468 25.775357,5.312458 25.309691,5.481791 Z m 3.245553,1.269999 q 0,0.564444 -0.409222,1.326444 -0.409222,0.761999 -1.058333,1.382887 -0.634999,0.606778 -1.425221,0.832555 -0.790222,0.225778 -1.53811,-0.310444 -0.479777,-0.338666 -0.691444,-0.973666 -0.211666,-0.634999 -0.169333,-1.340554 0.05644,-0.719666 0.296333,-1.467555 0.254,-0.761999 0.635,-1.354665 0.39511,-0.592667 0.917221,-0.959555 0.522111,-0.381 1.058333,-0.366889 0.733777,0.02822 1.298221,0.536222 0.564444,0.508 0.818444,1.227666 0.268111,0.705555 0.268111,1.467554 z" />
  <path
     d="m 31.179911,8.0359 q 0.254,0.155222 0.691444,0.127 Q 32.32291,8.13468 32.591021,7.880678 32.95791,7.51379 33.042576,7.019901 33.127246,6.511902 32.845021,5.933346 32.70391,5.651124 32.435799,5.495902 32.167688,5.34068 31.913688,5.34068 q -0.239888,0 -0.437444,0.141111 -0.197555,0.127 -0.225777,0.352778 -0.112889,1.03011 -0.07056,2.201331 z m 0.282222,-4.021663 q 0.691444,-0.409222 1.28411,-0.465667 0.606778,-0.07056 1.001888,0.169334 0.409222,0.225777 0.649111,0.677332 0.254,0.451556 0.282222,1.016 0.02822,0.550333 -0.169333,1.199443 -0.197556,0.649111 -0.620889,1.213555 -0.578555,0.804333 -0.90311,1.15711 -0.324555,0.352778 -0.663222,0.564444 -0.112889,0.05644 -0.239888,0.127 -0.112889,0.05644 -0.225778,0.112889 -0.09878,0.04233 -0.211667,0.08467 -0.09878,0.04233 -0.197555,0.08467 -0.08467,0.02822 -0.155222,0.05644 -0.05644,0.02822 -0.09878,0.02822 l -0.02822,0.01411 q 0,0.211666 0,0.550333 0.01411,0.324555 0.02822,1.044221 0.02822,0.733777 0.02822,1.114777 0.01411,0.338666 -0.536221,0.747888 -0.606778,0.465667 -0.889,0.225778 -0.127,-0.112889 -0.112889,-0.395111 0.197556,-4.332108 0,-8.33966 -0.01411,-0.338667 0.310445,-0.733777 0.338666,-0.395111 0.888999,-0.677333 0.05644,-0.02822 0.112889,-0.02822 0.05644,0 0.09878,0.02822 0.04233,0.01411 0.09878,0.07056 0.05644,0.05645 0.08467,0.09878 0.02822,0.04233 0.08467,0.127 0.07056,0.08467 0.09878,0.127 z" />
  <path
     d="m 37.82624,5.312458 q -0.141111,0.05644 -0.296333,0.352777 -0.155222,0.282223 -0.183445,0.578556 -0.01411,0.296333 0.197556,0.479777 0.141111,0.09878 0.451555,-0.112889 0.310444,-0.211666 0.536222,-0.507999 0.225777,-0.296334 0.169333,-0.423333 -0.112889,-0.268111 -0.381,-0.352778 -0.254,-0.08467 -0.493888,-0.014111 z m 0.395111,-1.693332 q 1.961443,0.02822 2.017887,1.255888 0.01411,0.423333 -0.493889,1.114777 -0.493888,0.677333 -1.128888,1.255888 -0.620888,0.564444 -1.086554,0.832555 0.08467,0.183444 0.183444,0.324555 0.112889,0.127 0.225778,0.197555 0.112888,0.05645 0.239888,0.08467 0.141111,0.01411 0.268111,0 0.141111,-0.02822 0.268111,-0.07056 0.127,-0.04233 0.239889,-0.112888 0.127,-0.08467 0.225777,-0.169334 0.112889,-0.09878 0.197556,-0.197555 0.08467,-0.09878 0.127,-0.197555 0.155222,-0.296333 0.451555,-0.352778 0.310444,-0.07056 0.437444,0.141111 0.141111,0.211667 -0.02822,0.691444 -0.296333,0.719666 -0.874888,1.213555 -0.564444,0.479777 -1.185333,0.620888 -0.620888,0.127 -1.199443,0.02822 -0.578555,-0.09878 -0.959555,-0.52211 -0.366889,-0.437445 -0.381,-1.086555 -0.01411,-1.086555 0.395111,-2.300109 0.409222,-1.213555 0.987777,-1.975555 0.592666,-0.77611 1.072444,-0.77611 z" />
  <path
     d="m 44.486677,5.580569 q -0.254,-0.08467 -0.564444,0.169333 -0.296333,0.239889 -0.536222,0.663222 -0.225777,0.423333 -0.380999,0.874888 -0.155222,0.437444 -0.127,0.818444 0.02822,0.366888 0.268111,0.465666 0.451555,0.197556 1.015999,-0.719666 0.578555,-0.917221 0.592666,-1.707443 0.01411,-0.479778 -0.268111,-0.564444 z m 1.340555,-4.388552 q 0.08467,-0.225778 0.239888,-0.381 0.169334,-0.169333 0.338667,-0.211666 0.183444,-0.05645 0.338666,-0.01411 0.169333,0.04233 0.239889,0.239889 0.08467,0.197556 0.04233,0.522111 -0.254,1.636887 -0.324555,4.078108 -0.07056,2.44122 -0.01411,3.85233 -0.01411,0.677333 -0.606778,1.015999 -0.493888,0.268111 -0.761999,0 -0.169333,-0.155222 -0.141111,-0.451555 0.127,-0.747888 0.08467,-1.735665 -0.05644,0.07055 -0.141111,0.183444 -0.07056,0.09878 -0.324556,0.409222 -0.239888,0.296333 -0.493888,0.550333 -0.239889,0.254 -0.578555,0.522111 -0.338667,0.268111 -0.649111,0.39511 -0.296333,0.127 -0.634999,0.09878 Q 42.116013,10.223128 41.862014,9.955014 41.551569,9.64457 41.537458,9.080126 41.523348,8.515682 41.735014,7.894793 41.94668,7.259794 42.32768,6.596572 q 0.381,-0.677333 0.832555,-1.213555 0.465666,-0.550332 0.973666,-0.917221 0.507999,-0.381 0.931332,-0.437444 0.522111,-2.088443 0.762,-2.836331 z" />
  <path
     d="m 49.086893,2.179794 q -0.324556,0.07056 -0.550333,-0.169333 -0.211667,-0.239889 -0.254,-0.564444 -0.04233,-0.381 0.155222,-0.719667 0.197556,-0.352777 0.733777,-0.451555 0.550333,-0.112889 0.903111,0.169333 0.366888,0.268111 0.324555,0.663222 -0.02822,0.310444 -0.522111,0.663222 -0.479777,0.338666 -0.790221,0.409222 z m -0.917222,2.935109 q -0.01411,-0.550333 0.719666,-1.044222 0.592667,-0.409222 0.874889,-0.282222 0.08467,0.05645 0.08467,0.183444 -0.04233,0.564444 -0.09878,1.848555 -0.04233,1.269999 -0.08467,2.300109 -0.04233,1.015999 -0.08467,1.312332 -0.04233,0.437444 -0.592666,0.790222 -0.564444,0.366888 -0.790222,0.08467 -0.08467,-0.112888 -0.08467,-0.338666 0.09878,-3.894664 0.05644,-4.854218 z" />
  <path
     d="m 54.138678,6.554235 q 0,-0.296333 -0.239889,-0.423333 -0.225777,-0.127 -0.479777,0.02822 -0.254,0.155222 -0.423333,0.465666 -0.169333,0.310445 -0.296333,0.663222 -0.127,0.352778 -0.127,0.635 0.01411,0.26811 0.127,0.352777 0.141111,0.07056 0.380999,-0.08467 0.254,-0.155222 0.479778,-0.437444 0.239889,-0.282222 0.409222,-0.592666 0.183444,-0.310444 0.169333,-0.606777 z m 0.888999,3.682997 Q 54.745455,10.067899 54.646678,9.44701 54.562008,8.826122 54.618458,8.2899 l 0.05644,-0.536222 q 0,0 -0.762,0.917222 -1.989665,2.243665 -2.723442,1.580443 Q 51.020123,10.08201 50.97779,9.729232 50.93546,9.376455 51.02012,8.9249 51.1189,8.459233 51.344675,7.923012 51.570453,7.372679 51.895008,6.822346 52.219563,6.272013 52.68523,5.735791 53.150896,5.199569 53.673007,4.762125 54.209228,4.31057 54.87245,3.986015 q 0.663222,-0.338667 1.368777,-0.465667 -0.09878,1.650999 0,3.273776 0.112889,1.608665 0.282222,2.031998 0.141111,0.338666 -0.08467,0.761999 -0.225777,0.423333 -0.64911,0.635 -0.423333,0.211666 -0.762,0.01411 z" />
</svg>
