<?xml version="1.0" encoding="UTF-8" standalone="no"?>
<svg
   width="800"
   height="761.90479"
   viewBox="0 -0.5 21 20.000001"
   version="1.1"
   fill="currentColor"
   id="svg12"
   xmlns="http://www.w3.org/2000/svg"
   xmlns:svg="http://www.w3.org/2000/svg">
  <path
     d="m 21,18.086 -1.4847,1.414 -5.93985,-5.657 1.4847,-1.414 z M 7.35,11.5 c -2.89485,0 -5.25,-2.243 -5.25,-5 0,-2.757 2.35515,-5 5.25,-5 2.89485,0 5.25,2.243 5.25,5 0,2.757 -2.35515,5 -5.25,5 z m 0,-12 C 3.2907,-0.5 0,2.634 0,6.5 c 0,3.866 3.2907,7 7.35,7 4.0593,0 7.35,-3.134 7.35,-7 0,-3.866 -3.2907,-7 -7.35,-7 z" />
 </svg>
