<?xml version="1.0" encoding="UTF-8" standalone="no"?>
<svg
   width="800"
   height="800"
   viewBox="0 0 24 24"
   fill="currentColor"
   version="1.1"
   xmlns="http://www.w3.org/2000/svg"
   xmlns:svg="http://www.w3.org/2000/svg">
  <path d="M 12 0 A 12 12 0 0 0 0 12 A 12 12 0 0 0 12 24 A 12 12 0 0 0 24 12 A 12 12 0 0 0 12 0 z M 10.21125 4.9777148 C 13.093993 4.9777148 15.444785 7.3285132 15.444785 10.21125 C 15.444785 11.412125 14.96947 12.469829 14.285039 13.354629 L 17.870977 16.94543 A 0.6542116 0.6542116 0 0 1 17.870977 17.870977 A 0.6542116 0.6542116 0 0 1 16.94543 17.870977 L 13.359492 14.281816 C 12.473932 14.968402 11.414214 15.444785 10.21125 15.444785 C 7.3285132 15.444785 4.9777148 13.093993 4.9777148 10.21125 C 4.9777148 7.3285121 7.3285121 4.9777148 10.21125 4.9777148 z M 10.21125 6.2861133 L 10.21125 6.2862305 C 8.0356365 6.2862305 6.2861133 8.0358122 6.2861133 10.211426 C 6.2861133 12.387047 8.0356354 14.136563 10.21125 14.136563 C 11.297765 14.136563 12.277142 13.699161 12.986309 12.991289 A 0.6542116 0.6542116 0 0 1 12.989531 12.984785 A 0.6542116 0.6542116 0 0 1 12.994395 12.983086 C 13.700401 12.27417 14.136445 11.296143 14.136445 10.21125 C 14.136445 8.0356354 12.386871 6.2861133 10.21125 6.2861133 z " />
</svg>
