<?xml version="1.0" encoding="UTF-8" standalone="no"?>
<svg
   width="800"
   height="800"
   viewBox="0 0 24 24"
   fill="currentColor"
   version="1.1"
   xmlns="http://www.w3.org/2000/svg"
   xmlns:svg="http://www.w3.org/2000/svg">
  <path d="M 10.21125 4.9777148 C 7.328515 4.9777148 4.9777148 7.328515 4.9777148 10.21125 C 4.9777148 13.09399 7.3285161 15.444785 10.21125 15.444785 C 11.414213 15.444785 12.473933 14.968402 13.359492 14.281816 L 16.94543 17.870977 A 0.6542116 0.6542116 0 0 0 17.870977 17.870977 A 0.6542116 0.6542116 0 0 0 17.870977 16.94543 L 14.285039 13.354629 C 14.969469 12.46983 15.444785 11.412124 15.444785 10.21125 C 15.444785 7.3285161 13.09399 4.9777148 10.21125 4.9777148 z M 10.21125 6.2861133 C 12.386869 6.2861133 14.136445 8.0356376 14.136445 10.21125 C 14.136445 11.296142 13.7004 12.274171 12.994395 12.983086 A 0.6542116 0.6542116 0 0 0 12.989531 12.984785 A 0.6542116 0.6542116 0 0 0 12.986309 12.991289 C 12.277142 13.69916 11.297764 14.136563 10.21125 14.136563 C 8.0356376 14.136563 6.2861133 12.387045 6.2861133 10.211426 C 6.2861133 8.0358142 8.0356387 6.2862305 10.21125 6.2862305 L 10.21125 6.2861133 z " />
</svg>
