<?xml version="1.0" encoding="UTF-8" standalone="no"?>
<svg
   version="1.1"
   id="svg2"
   width="800"
   height="800"
   viewBox="0 0 97.75 97.75"
   fill="currentColor"
   xmlns="http://www.w3.org/2000/svg"
   xmlns:svg="http://www.w3.org/2000/svg">
   <path d="M 48.875,0 C 21.883,0 0,21.883 0,48.875 0,75.867 21.883,97.75 48.875,97.75 75.867,97.75 97.75,75.867 97.75,48.875 97.75,21.883 75.867,0 48.875,0 Z M 77.691,37.503 C 74.912,43.783 66.412,63.674 60.74,76.639 60.732,76.645 59.254,76.636 59.25,76.634 L 50.305,55.565 C 46.76,62.518 42.832,69.746 39.473,76.624 39.453,76.659 37.848,76.64 37.846,76.618 32.711,64.632 27.387,52.725 22.225,40.748 21.03,37.82 16.838,33.111 13.969,33.138 c 0,-0.34 -0.016,-1.099 -0.02,-1.558 l 17.682,-0.002 -0.014,1.531 c -2.076,0.096 -5.664,1.421 -4.734,3.713 2.492,5.381 11.316,26.227 13.701,31.519 1.664,-3.257 6.311,-11.939 8.225,-15.609 -1.5,-3.078 -6.457,-14.57 -7.943,-17.464 -1.121,-1.887 -3.934,-2.118 -6.1,-2.151 0,-0.483 0.025,-0.855 0.016,-1.518 l 15.543,0.048 v 1.412 c -2.104,0.058 -4.096,0.841 -3.193,2.853 2.091,4.34 3.312,7.43 5.231,11.444 0.613,-1.176 3.755,-7.622 5.253,-11.024 0.905,-2.262 -0.447,-3.109 -4.232,-3.211 0.05,-0.372 0.017,-1.119 0.05,-1.475 l 13.424,0.013 0.006,1.401 c -2.467,0.096 -5.021,1.41 -6.354,3.45 l -6.464,13.406 c 0.709,1.773 6.924,15.58 7.578,17.111 L 74.988,36.18 c -0.951,-2.497 -3.984,-3.055 -5.17,-3.082 0.008,-0.398 0.01,-1.005 0.012,-1.512 l 13.951,0.04 0.02,0.07 -0.023,1.394 c -3.061,0.093 -4.954,1.73 -6.087,4.413 z"/>
</svg>
