<?xml version="1.0" encoding="UTF-8" standalone="no"?>
<svg
   version="1.1"
   width="800"
   height="800"
   viewBox="0 0 97.75 97.75"
   fill="currentColor"
   xmlns="http://www.w3.org/2000/svg"
   xmlns:svg="http://www.w3.org/2000/svg">
  <path d="M 31.63105 31.578071 L 13.948944 31.57998 C 13.952944 32.038979 13.96899 32.798109 13.96899 33.138109 C 16.837988 33.111109 21.030001 37.820102 22.224999 40.748099 C 27.386994 52.725087 32.710913 64.632018 37.845908 76.618006 C 37.847908 76.640006 39.453006 76.658972 39.473006 76.623972 C 42.832003 69.745979 46.759979 62.517997 50.304976 55.565004 L 59.24996 76.633995 C 59.25396 76.635995 60.732074 76.645007 60.740074 76.639007 C 66.412069 63.67402 74.911968 43.782965 77.690965 37.502971 C 78.823964 34.819974 80.71691 33.182902 83.777907 33.089902 L 83.801056 31.695963 L 83.78101 31.626039 L 69.829918 31.585946 C 69.827918 32.092946 69.825985 32.700017 69.817985 33.098016 C 71.003984 33.125016 74.037045 33.682912 74.988044 36.17991 L 61.624025 67.027003 C 60.970025 65.496005 54.755012 51.688978 54.046013 49.91598 L 60.510018 36.509959 C 61.843017 34.469961 64.397009 33.156071 66.864007 33.060071 L 66.858041 31.658972 L 53.433882 31.646085 C 53.400882 32.002085 53.434005 32.748927 53.384005 33.120927 C 57.169001 33.222926 58.52094 34.06993 57.615941 36.331928 C 56.117942 39.733925 52.976071 46.18001 52.363071 47.356009 C 50.444073 43.342013 49.222917 40.251904 47.131919 35.911909 C 46.22892 33.899911 48.221024 33.117117 50.325022 33.059117 L 50.325022 31.64704 L 34.781913 31.599072 C 34.790913 32.262071 34.765923 32.634109 34.765923 33.117108 C 36.931921 33.150108 39.744992 33.38104 40.865991 35.268038 C 42.35199 38.162035 47.308896 49.654023 48.808895 52.73202 C 46.894897 56.402017 42.247908 65.083999 40.58391 68.340996 C 38.198912 63.049001 29.374918 42.203105 26.882921 36.82211 C 25.952921 34.530112 29.540972 33.204994 31.61697 33.108994 L 31.63105 31.578071 z " />
</svg>
