<?xml version="1.0" encoding="UTF-8" standalone="no"?>
<!-- Uploaded to: SVG Repo, www.svgrepo.com, Generator: SVG Repo Mixer Tools -->

<svg
   fill="#000000"
   height="800px"
   width="800px"
   version="1.1"
   viewBox="0 0 296 296"
   enable-background="new 0 0 296 296"
   fill="currentColor"
   id="svg3"
   xmlns="http://www.w3.org/2000/svg"
   xmlns:svg="http://www.w3.org/2000/svg">
  <defs
     id="defs3" />
  <path
     d="m 148,52.192051 c -52.913177,0 -95.807949,42.894772 -95.807949,95.807949 0,52.91318 42.894772,95.80795 95.807949,95.80795 52.91318,0 95.80795,-42.89477 95.80795,-95.80795 0,-52.913177 -42.89477,-95.807949 -95.80795,-95.807949 z m 0,181.150819 c -47.13363,0 -85.342873,-38.20925 -85.342873,-85.34287 0,-47.13363 38.209243,-85.342873 85.342873,-85.342873 47.13362,0 85.34287,38.209243 85.34287,85.342873 0,47.13362 -38.20925,85.34287 -85.34287,85.34287 z"
     id="path1"
     style="stroke-width:0.647351" />
  <path
     d="M 201.02258,94.977421 C 186.85919,80.814676 168.02904,73.014743 148,73.014743 c -20.02904,0 -38.85919,7.799933 -53.022579,21.962678 C 80.814676,109.14081 73.014743,127.97096 73.014743,148 c 0,20.02904 7.799933,38.85919 21.962678,53.02258 14.163389,14.16275 32.993539,21.96267 53.022579,21.96267 20.02904,0 38.85919,-7.79992 53.02258,-21.96267 14.16275,-14.16339 21.96267,-32.99354 21.96267,-53.02258 0,-20.02904 -7.79992,-38.85919 -21.96267,-53.022579 z M 100.20413,136.99503 c -2.859994,0 -5.178805,-2.31881 -5.178805,-5.17881 0,-2.85999 2.318811,-5.1788 5.178805,-5.1788 2.86,0 5.17881,2.31881 5.17881,5.1788 0,2.86 -2.31881,5.17881 -5.17881,5.17881 z m 10.35762,58.90894 c -2.85999,0 -5.17881,-2.31881 -5.17881,-5.1788 0,-2.86 2.31882,-5.17881 5.17881,-5.17881 2.86,0 5.17881,2.31881 5.17881,5.17881 0,2.85999 -2.31881,5.1788 -5.17881,5.1788 z m 31.50528,-11.4361 c -4.17153,4.17153 -10.93506,4.17153 -15.10594,6.5e-4 l -15.10594,-15.10594 c -4.17087,-4.17088 -4.17087,-10.9344 0,-15.10528 4.17089,-4.17153 10.93506,-4.17089 15.10594,0 l 15.10594,15.10528 c 4.17088,4.17088 4.17088,10.93441 0,15.10529 z M 148,153.17881 c -2.85999,0 -5.17881,-2.31882 -5.17881,-5.17881 0,-2.85999 2.31882,-5.17881 5.17881,-5.17881 2.85999,0 5.17881,2.31882 5.17881,5.17881 0,2.85999 -2.31882,5.17881 -5.17881,5.17881 z m -0.32303,-26.54139 H 126.3131 c -5.89867,0 -10.68065,-4.78263 -10.68065,-10.68129 0,-5.89867 4.78198,-10.6813 10.68065,-10.6813 h 21.36387 c 5.89866,0 10.68065,4.78263 10.68065,10.6813 0,5.89866 -4.78199,10.68129 -10.68065,10.68129 z m 11.4361,-26.5414 c 0,-2.859992 2.31882,-5.178803 5.17881,-5.178803 2.86,0 5.17881,2.318811 5.17881,5.178803 0,2.86 -2.31881,5.17881 -5.17881,5.17881 -2.85999,0 -5.17881,-2.31881 -5.17881,-5.17881 z m 10.35762,100.98676 c -2.85999,0 -5.17881,-2.31881 -5.17881,-5.17881 0,-2.85999 2.31882,-5.1788 5.17881,-5.1788 2.86,0 5.17881,2.31881 5.17881,5.1788 0,2.86 -2.31881,5.17881 -5.17881,5.17881 z m 26.86507,-42.40149 c 0,5.89867 -4.78263,10.68129 -10.68129,10.68129 -5.89867,0 -10.6813,-4.78262 -10.6813,-10.68129 v -21.36258 c 0,-5.89867 4.78263,-10.68129 10.6813,-10.68129 5.89866,0 10.68129,4.78262 10.68129,10.68129 z"
     id="path2"
     style="stroke-width:0.647351" />
</svg>
