<?xml version="1.0" encoding="UTF-8" standalone="no"?>
<svg
   height="800px"
   width="800px"
   version="1.1"
   viewBox="0 0 512 512"
   fill="currentColor"
   xmlns="http://www.w3.org/2000/svg"
   xmlns:svg="http://www.w3.org/2000/svg">
<g
   id="g1"
   transform="matrix(0.65457426,0,0,0.65457426,88.428984,88.428875)">
	<path
   class="st0"
   d="M 497.625,14.371 C 469.4,-13.855 275.921,2.287 271.879,38.571 c -4.025,36.268 15.132,62.472 15.132,62.472 0,0 -134.281,108.585 -252.192,286.966 -38.882,58.822 -39.567,107.574 -28.995,118.163 10.589,10.58 59.35,9.895 118.172,-28.994 178.38,-117.905 286.957,-252.193 286.957,-252.193 0,0 26.204,19.157 62.472,15.124 36.292,-4.026 52.426,-197.513 24.2,-225.738 z m -82.13,48.877 c -10.02,10.021 -21.844,14.422 -26.446,9.829 -4.61,-4.593 -0.201,-16.434 9.82,-26.456 10.021,-10.02 21.87,-14.422 26.447,-9.82 4.61,4.593 0.2,16.426 -9.821,26.447 z m 49.888,49.887 c -10.02,10.02 -21.87,14.422 -26.463,9.82 -4.584,-4.602 -0.184,-16.426 9.837,-26.447 10.021,-10.02 21.854,-14.43 26.438,-9.829 4.602,4.585 0.209,16.435 -9.812,26.456 z"
   id="path1" />
</g>
</svg>
